# Blender v2.79 (sub 0) OBJ File: ''
# www.blender.org
v 0.000000 -6.966775 -3.484586
v 0.000000 0.002397 0.000000
v 0.679809 -6.966775 -3.417631
v 1.333493 -6.966775 -3.219338
v 1.935932 -6.966775 -2.897327
v 2.463974 -6.966775 -2.463974
v 2.897328 -6.966775 -1.935932
v 3.219338 -6.966775 -1.333493
v 3.417631 -6.966775 -0.679809
v 3.484586 -6.966775 -0.000000
v 3.417631 -6.966775 0.679809
v 3.219338 -6.966775 1.333493
v 2.897328 -6.966775 1.935932
v 2.463974 -6.966775 2.463974
v 1.935932 -6.966775 2.897328
v 1.333493 -6.966775 3.219338
v 0.679808 -6.966775 3.417631
v -0.000001 -6.966775 3.484586
v -0.679810 -6.966775 3.417631
v -1.333495 -6.966775 3.219337
v -1.935934 -6.966775 2.897326
v -2.463976 -6.966775 2.463973
v -2.897329 -6.966775 1.935930
v -3.219339 -6.966775 1.333491
v -3.417631 -6.966775 0.679806
v -3.484586 -6.966775 -0.000003
v -3.417630 -6.966775 -0.679813
v -3.219336 -6.966775 -1.333497
v -2.897325 -6.966775 -1.935936
v -2.463971 -6.966775 -2.463978
v -1.935928 -6.966775 -2.897330
v -1.333489 -6.966775 -3.219340
v -0.679804 -6.966775 -3.417632
vn 0.0878 0.4455 -0.8910
vn 0.2599 0.4455 -0.8567
vn 0.4220 0.4455 -0.7896
vn 0.5680 0.4455 -0.6921
vn 0.6921 0.4455 -0.5680
vn 0.7896 0.4455 -0.4220
vn 0.8567 0.4455 -0.2599
vn 0.8910 0.4455 -0.0878
vn 0.8910 0.4455 0.0878
vn 0.8567 0.4455 0.2599
vn 0.7896 0.4455 0.4220
vn 0.6921 0.4455 0.5680
vn 0.5680 0.4455 0.6921
vn 0.4220 0.4455 0.7896
vn 0.2599 0.4455 0.8567
vn 0.0878 0.4455 0.8910
vn -0.0878 0.4455 0.8910
vn -0.2599 0.4455 0.8567
vn -0.4220 0.4455 0.7896
vn -0.5680 0.4455 0.6921
vn -0.6921 0.4455 0.5680
vn -0.7896 0.4455 0.4220
vn -0.8567 0.4455 0.2599
vn -0.8910 0.4455 0.0878
vn -0.8910 0.4455 -0.0878
vn -0.8567 0.4455 -0.2599
vn -0.7896 0.4455 -0.4220
vn -0.6921 0.4455 -0.5680
vn -0.5680 0.4455 -0.6921
vn -0.4220 0.4455 -0.7896
vn -0.2599 0.4455 -0.8567
vn -0.0878 0.4455 -0.8910
vn 0.0000 -1.0000 0.0000
s off
f 1//1 2//1 3//1
f 3//2 2//2 4//2
f 4//3 2//3 5//3
f 5//4 2//4 6//4
f 6//5 2//5 7//5
f 7//6 2//6 8//6
f 8//7 2//7 9//7
f 9//8 2//8 10//8
f 10//9 2//9 11//9
f 11//10 2//10 12//10
f 12//11 2//11 13//11
f 13//12 2//12 14//12
f 14//13 2//13 15//13
f 15//14 2//14 16//14
f 16//15 2//15 17//15
f 17//16 2//16 18//16
f 18//17 2//17 19//17
f 19//18 2//18 20//18
f 20//19 2//19 21//19
f 21//20 2//20 22//20
f 22//21 2//21 23//21
f 23//22 2//22 24//22
f 24//23 2//23 25//23
f 25//24 2//24 26//24
f 26//25 2//25 27//25
f 27//26 2//26 28//26
f 28//27 2//27 29//27
f 29//28 2//28 30//28
f 30//29 2//29 31//29
f 31//30 2//30 32//30
f 32//31 2//31 33//31
f 33//32 2//32 1//32
f 17//33 25//33 33//33
f 33//33 1//33 3//33
f 3//33 4//33 5//33
f 5//33 6//33 7//33
f 7//33 8//33 5//33
f 9//33 10//33 11//33
f 11//33 12//33 9//33
f 13//33 14//33 17//33
f 15//33 16//33 17//33
f 17//33 18//33 19//33
f 19//33 20//33 17//33
f 21//33 22//33 23//33
f 23//33 24//33 25//33
f 25//33 26//33 27//33
f 27//33 28//33 25//33
f 29//33 30//33 31//33
f 31//33 32//33 33//33
f 33//33 3//33 5//33
f 5//33 8//33 9//33
f 9//33 12//33 13//33
f 14//33 15//33 17//33
f 17//33 20//33 21//33
f 21//33 23//33 25//33
f 25//33 28//33 29//33
f 29//33 31//33 25//33
f 33//33 5//33 17//33
f 9//33 13//33 17//33
f 17//33 21//33 25//33
f 25//33 31//33 33//33
f 5//33 9//33 17//33
